<svg xmlns="http://www.w3.org/2000/svg" xmlns:xlink="http://www.w3.org/1999/xlink" width="1080" zoomAndPan="magnify" viewBox="0 0 810 1012.49997" height="1350" preserveAspectRatio="xMidYMid meet" version="1.0"><defs><clipPath id="905eb5e32b"><path d="M 40 299.425781 L 538 299.425781 L 538 623 L 40 623 Z M 40 299.425781 " clip-rule="nonzero"/></clipPath><clipPath id="30c18f1e2b"><path d="M 28.789062 568 L 781.207031 568 L 781.207031 641 L 28.789062 641 Z M 28.789062 568 " clip-rule="nonzero"/></clipPath><clipPath id="7f5b70400e"><path d="M 134 586 L 721 586 L 721 712.265625 L 134 712.265625 Z M 134 586 " clip-rule="nonzero"/></clipPath></defs><g clip-path="url(#905eb5e32b)"><path fill="#f5ba53" d="M 537.109375 299.859375 L 537.109375 622.332031 L 40.644531 622.332031 L 40.644531 299.859375 L 537.109375 299.859375 " fill-opacity="1" fill-rule="evenodd"/></g><path fill="#fce8bc" d="M 395.367188 308.160156 L 395.367188 308.425781 L 395.433594 308.660156 C 395.601562 308.359375 395.699219 308.0625 395.5 307.996094 C 395.46875 307.996094 395.433594 307.996094 395.402344 307.996094 Z M 398.820312 309.789062 C 398.855469 309.753906 398.855469 309.753906 398.855469 309.722656 C 398.886719 309.722656 398.886719 309.6875 398.921875 309.6875 Z M 123.738281 311.914062 C 123.671875 311.914062 123.640625 311.914062 123.574219 311.914062 C 123.507812 311.882812 123.574219 312.046875 123.574219 312.113281 C 123.539062 312.246094 123.539062 312.414062 123.539062 312.613281 L 123.738281 312.445312 C 123.738281 312.347656 123.738281 312.214844 123.738281 312.082031 Z M 303.738281 314.703125 C 303.707031 314.703125 303.671875 314.671875 303.640625 314.671875 C 303.441406 314.671875 303.40625 314.902344 303.441406 315.203125 L 303.507812 315.101562 C 303.605469 315.003906 303.671875 314.835938 303.738281 314.703125 Z M 302.84375 315.734375 C 302.710938 315.832031 302.542969 315.898438 302.378906 315.933594 C 302.246094 315.964844 302.078125 316 301.914062 316 C 302.210938 316 302.542969 315.933594 302.84375 315.734375 Z M 160.105469 319.984375 C 160.105469 319.917969 160.105469 319.785156 160.070312 319.785156 C 160.039062 319.785156 160.003906 319.820312 160.003906 319.820312 L 160.105469 319.984375 L 160.105469 320.085938 L 160.269531 320.21875 Z M 160.933594 320.683594 C 160.96875 320.714844 161.035156 320.75 161.101562 320.75 C 161.167969 320.78125 161.199219 320.816406 161.265625 320.816406 Z M 161.332031 320.816406 L 161.433594 320.847656 L 161.265625 320.816406 Z M 480.753906 308.59375 C 481.648438 310.019531 482.179688 313.242188 482.578125 317.925781 C 483.410156 327.257812 483.308594 341.902344 482.777344 359.671875 C 482.347656 374.683594 481.515625 391.886719 480.652344 410.019531 C 480.121094 420.945312 479.589844 432.234375 479.058594 443.59375 C 478.292969 460.597656 477.5625 477.734375 476.898438 493.972656 C 475.605469 524.527344 476.402344 578.5625 476.203125 596.328125 C 476.167969 597.457031 477.132812 598.386719 478.292969 598.421875 C 479.457031 598.453125 480.421875 597.558594 480.453125 596.429688 C 480.984375 582.78125 480.421875 536.816406 481.816406 514.730469 C 482.910156 497.5625 484.140625 478.765625 485.269531 459.667969 C 485.832031 449.871094 486.398438 440.007812 486.863281 430.242188 C 487.558594 415 488.058594 400.054688 488.355469 386.105469 C 488.824219 364.253906 488.789062 344.890625 488.089844 330.746094 C 487.460938 317.890625 486.066406 309.191406 484.140625 306.433594 C 483.542969 305.539062 482.28125 305.273438 481.351562 305.871094 C 480.386719 306.46875 480.121094 307.664062 480.753906 308.59375 Z M 436.949219 310.1875 C 437.445312 327.886719 437.28125 345.65625 436.847656 363.457031 C 436.417969 380.492188 435.683594 397.53125 434.886719 414.601562 C 434.355469 425.960938 433.792969 437.316406 433.226562 448.707031 C 432.429688 465.777344 431.699219 482.882812 431.035156 499.917969 C 430.105469 525.65625 430.304688 570.09375 430.539062 595.632812 C 430.503906 596.792969 431.46875 597.691406 432.628906 597.722656 C 433.824219 597.722656 434.753906 596.792969 434.789062 595.664062 C 435.085938 577.066406 435.121094 539.671875 436.117188 520.972656 C 437.113281 502.34375 438.277344 483.710938 439.40625 465.046875 C 440.003906 455.085938 440.566406 445.121094 441.03125 435.160156 C 441.761719 420.179688 442.292969 405.234375 442.558594 390.257812 C 443.023438 363.425781 442.625 336.621094 441 310.019531 C 440.964844 308.957031 440.003906 308.09375 438.875 308.160156 C 437.746094 308.195312 436.882812 309.125 436.949219 310.1875 Z M 337.648438 309.023438 C 335.289062 318.722656 333.664062 351.335938 332.898438 391.585938 C 332.601562 406.164062 332.433594 421.808594 332.433594 437.683594 C 332.402344 447.878906 332.46875 458.171875 332.566406 468.402344 C 332.734375 488.429688 333 508.121094 333.230469 525.988281 C 333.496094 549.4375 332.867188 581.582031 332.734375 595.398438 C 332.699219 596.527344 333.628906 597.492188 334.792969 597.492188 C 335.988281 597.523438 336.949219 596.628906 336.949219 595.5 C 337.679688 575.773438 339.007812 531.070312 339.277344 494.738281 C 339.410156 475.476562 339.574219 455.25 339.574219 435.492188 C 339.574219 418.386719 339.476562 401.617188 339.476562 386.140625 C 339.441406 367.242188 339.476562 350.238281 339.839844 336.855469 C 340.140625 323.902344 340.671875 314.371094 341.601562 309.855469 C 341.867188 308.792969 341.167969 307.761719 340.074219 307.53125 C 338.976562 307.296875 337.878906 307.960938 337.648438 309.023438 Z M 250.304688 310.386719 C 251.398438 308.957031 252.5625 311.648438 252.664062 320.914062 C 252.664062 320.980469 252.664062 321.046875 252.628906 321.113281 C 252.695312 323.636719 252.695312 323.539062 252.730469 326.359375 L 252.796875 344.492188 C 252.695312 353.460938 252.5625 362.425781 252.363281 371.394531 C 252.199219 380.359375 251.964844 389.292969 251.734375 398.261719 C 251.46875 407.5625 251.199219 416.859375 250.835938 426.160156 C 250.503906 435.457031 250.105469 444.757812 249.640625 454.054688 C 248.808594 471.390625 247.847656 488.761719 246.949219 506.097656 C 245.554688 532.101562 244.660156 546.976562 243.664062 573.015625 C 243.628906 574.144531 242.664062 575.042969 241.503906 575.007812 C 240.339844 574.976562 239.410156 574.046875 239.410156 572.914062 C 239.808594 541.898438 240.140625 521.972656 241.203125 490.953125 C 241.734375 475.476562 242.265625 459.96875 242.933594 444.492188 C 243.597656 428.980469 244.425781 413.503906 245.058594 398.027344 L 247.582031 344.359375 L 248.179688 326.359375 C 248.246094 323.339844 248.476562 322.808594 248.511719 320.714844 L 248.542969 319.886719 C 248.3125 312.378906 249.273438 309.722656 250.304688 310.386719 Z M 160.003906 319.820312 C 159.839844 319.585938 159.773438 319.285156 159.773438 318.988281 C 159.707031 317.925781 160.601562 316.996094 161.699219 316.960938 C 162.230469 316.929688 162.792969 317.09375 163.292969 317.527344 C 163.523438 317.757812 163.957031 318.390625 164.125 319.386719 C 164.523438 321.511719 164.554688 326.957031 164.589844 327.722656 L 166.648438 408.160156 C 166.945312 420.777344 167.3125 433.363281 167.542969 445.984375 C 167.777344 458.570312 167.941406 471.191406 168.042969 483.8125 C 168.375 521.640625 165.816406 530.574219 165.851562 568.433594 C 165.882812 569.5625 164.953125 570.492188 163.757812 570.492188 C 162.59375 570.523438 161.632812 569.59375 161.597656 568.464844 C 160.933594 541.996094 162.726562 544.421875 162.03125 517.953125 C 161.597656 500.285156 161.132812 482.648438 160.769531 465.015625 C 160.535156 453.65625 160.335938 442.300781 160.203125 430.972656 C 160.070312 423.402344 160.039062 415.828125 159.9375 408.292969 C 159.871094 400.222656 159.839844 392.152344 159.871094 384.113281 C 159.9375 365.316406 160.238281 346.554688 160.203125 327.789062 C 160.203125 327.089844 160.402344 322.078125 160.105469 320.085938 C 160.003906 319.984375 159.9375 319.886719 160.003906 319.820312 Z M 202.214844 318.421875 C 202.214844 318.421875 200.886719 347.050781 199.925781 374.515625 C 199.425781 388.664062 199.027344 402.511719 198.863281 411.945312 C 198.761719 419.714844 198.628906 427.488281 198.5625 435.257812 C 198.460938 446.914062 198.394531 458.570312 198.429688 470.230469 C 198.429688 488.363281 198.328125 547.410156 198.527344 565.542969 C 198.726562 589.519531 204.9375 528.511719 205.335938 489.65625 C 205.4375 476.703125 205.535156 463.785156 205.570312 450.832031 C 205.636719 437.882812 205.570312 424.929688 205.570312 411.976562 L 206.265625 318.523438 C 206.300781 317.460938 205.402344 316.53125 204.308594 316.496094 C 203.179688 316.496094 202.25 317.328125 202.214844 318.421875 Z M 395.402344 307.996094 C 395.46875 307.695312 395.632812 307.363281 395.832031 307.132812 C 396.363281 306.535156 396.863281 306.433594 397.09375 306.402344 C 397.859375 306.234375 398.457031 306.5 398.886719 306.933594 C 399.1875 307.164062 399.617188 307.695312 399.519531 308.625 C 399.484375 308.890625 399.085938 309.953125 398.988281 310.417969 C 398.257812 314.105469 397.824219 317.890625 397.527344 321.679688 C 397.0625 327.488281 396.894531 333.335938 396.53125 339.015625 C 396.066406 345.621094 395.203125 365.78125 393.972656 392.648438 C 393.242188 408.625 392.445312 426.988281 391.480469 446.285156 C 390.816406 460.300781 390.019531 474.777344 389.257812 489.191406 C 388.09375 511.476562 386.933594 533.628906 386.003906 553.585938 C 385.039062 574.675781 384.410156 582.945312 384.109375 596.828125 C 384.109375 597.957031 383.148438 598.851562 381.984375 598.851562 C 380.820312 598.851562 379.859375 597.921875 379.859375 596.792969 C 379.792969 577.199219 380.222656 558.503906 381.1875 526.519531 C 381.71875 509.117188 382.382812 490.851562 383.113281 472.820312 C 383.511719 463.753906 383.910156 454.753906 384.34375 445.953125 C 384.808594 436.753906 385.304688 427.753906 385.835938 419.117188 C 386.5 407.628906 387.199219 396.765625 387.863281 386.9375 C 389.457031 362.726562 390.882812 344.792969 391.480469 338.648438 C 392.046875 332.9375 392.378906 327.089844 393.042969 321.28125 C 393.476562 317.328125 394.074219 313.441406 394.9375 309.621094 C 394.96875 309.421875 395.203125 309.089844 395.402344 308.757812 C 395.367188 308.660156 395.367188 308.527344 395.367188 308.425781 C 395.300781 308.226562 395.269531 307.996094 395.402344 307.996094 Z M 74.519531 312.910156 C 73.789062 313.875 73.160156 315.800781 72.726562 318.488281 C 72.0625 323.105469 71.832031 330.28125 71.898438 338.484375 C 72.128906 360.46875 74.421875 389.925781 74.453125 395.769531 C 74.753906 416.695312 74.953125 437.617188 75.285156 458.539062 C 75.550781 474.214844 75.914062 489.890625 76.183594 505.597656 C 76.480469 521.273438 76.746094 536.949219 76.878906 552.625 C 77.113281 575.007812 76.613281 577.265625 76.347656 599.683594 C 76.316406 600.8125 77.246094 601.742188 78.40625 601.777344 C 79.601562 601.808594 80.566406 600.914062 80.597656 599.78125 C 81.859375 562.386719 82.988281 545.152344 82.890625 507.757812 C 82.855469 489.058594 82.691406 470.394531 82.324219 451.699219 C 81.960938 433 81.363281 414.335938 80.863281 395.671875 C 80.664062 389.792969 77.644531 360.367188 76.78125 338.382812 C 76.449219 330.445312 76.414062 323.503906 76.945312 319.019531 C 77.144531 317.195312 77.34375 315.832031 77.84375 315.203125 C 78.472656 314.304688 78.273438 313.078125 77.34375 312.445312 C 76.449219 311.816406 75.183594 312.046875 74.519531 312.910156 Z M 123.539062 313.144531 C 123.507812 315.867188 123.640625 321.480469 123.640625 323.96875 L 123.839844 343 C 124.003906 355.089844 124.136719 367.175781 124.171875 379.230469 C 124.171875 391.320312 124.105469 403.410156 123.972656 415.464844 L 119.488281 597.988281 C 119.488281 599.117188 118.558594 600.046875 117.363281 600.046875 C 116.199219 600.046875 115.238281 599.117188 115.238281 597.988281 C 114.773438 556.175781 116.101562 540.835938 116.066406 499.023438 C 116.066406 485.074219 116.101562 471.125 116.300781 457.175781 C 116.464844 443.230469 116.832031 429.28125 117.195312 415.332031 C 117.5625 403.277344 117.859375 391.253906 118.125 379.199219 C 118.390625 367.109375 118.625 355.089844 118.789062 343 L 119.15625 323.902344 C 119.253906 321.015625 119.320312 313.875 119.453125 311.882812 C 119.621094 309.886719 121.449219 309.523438 121.648438 309.523438 C 121.8125 309.523438 123.472656 309.855469 123.738281 311.914062 C 124.171875 312.015625 124.070312 312.214844 123.738281 312.445312 C 123.707031 312.710938 123.640625 312.945312 123.539062 313.144531 Z M 303.441406 315.203125 C 303.507812 315.667969 303.707031 316.199219 303.707031 316.230469 C 303.773438 320.449219 303.804688 324.699219 303.773438 328.917969 C 303.738281 335.226562 303.640625 341.570312 303.574219 347.882812 L 302.277344 425.527344 C 301.914062 441.632812 301.648438 457.742188 301.316406 473.882812 C 300.816406 498.027344 300.285156 522.203125 299.886719 546.378906 C 299.457031 573.246094 299.257812 571.1875 299.058594 598.054688 C 299.058594 599.183594 298.128906 600.082031 296.933594 600.113281 C 295.769531 600.113281 294.804688 599.183594 294.804688 598.054688 C 294.207031 557.738281 293.644531 546.347656 293.875 505.996094 C 293.941406 492.578125 294.074219 479.128906 294.339844 465.679688 C 294.605469 452.230469 295.003906 438.8125 295.4375 425.363281 L 298.460938 347.78125 C 298.726562 341.472656 299.023438 335.128906 299.257812 328.820312 C 299.390625 324.632812 299.523438 320.417969 299.589844 316.230469 C 299.589844 316.132812 299.523438 314.238281 299.722656 313.609375 C 300.152344 312.347656 301.183594 312.015625 301.945312 312.082031 C 303.074219 312.148438 303.90625 313.109375 303.839844 314.171875 C 303.839844 314.371094 303.804688 314.539062 303.738281 314.703125 C 303.804688 314.769531 303.671875 314.96875 303.507812 315.101562 L 303.441406 315.203125 " fill-opacity="1" fill-rule="evenodd"/><path fill="#ff751f" d="M 259.039062 398.792969 L 259.070312 398.828125 C 259.070312 398.828125 259.070312 398.859375 259.105469 398.894531 L 259.105469 398.828125 Z M 259.304688 400.851562 C 259.171875 400.917969 259.304688 401.25 259.46875 401.285156 C 259.570312 401.316406 259.703125 401.21875 259.703125 401.117188 C 259.667969 400.953125 259.703125 400.785156 259.667969 400.554688 L 259.601562 400.453125 C 259.535156 400.585938 259.402344 400.820312 259.304688 400.851562 Z M 259.667969 402.046875 C 259.667969 402.082031 259.703125 402.113281 259.769531 402.113281 C 260.199219 402.214844 260.167969 401.683594 259.96875 401.152344 C 259.867188 401.417969 259.769531 401.75 259.667969 402.046875 Z M 254.058594 404.871094 C 252.996094 403.375 252.496094 401.683594 253.292969 399.988281 C 253.59375 399.425781 253.859375 398.792969 254.355469 398.292969 C 255.351562 397.296875 256.515625 396.402344 257.277344 396.101562 C 257.710938 395.9375 258.175781 395.570312 258.839844 395.605469 C 259.136719 395.605469 259.503906 395.769531 259.800781 395.871094 L 259.96875 395.769531 L 260.066406 395.738281 C 260 395.769531 259.96875 395.835938 259.902344 395.902344 C 260.066406 395.9375 260.199219 395.9375 260.199219 395.804688 C 260.199219 395.738281 260.199219 395.703125 260.167969 395.703125 C 260.800781 395.539062 261.496094 395.636719 262.027344 396.070312 C 262.625 396.335938 262.625 396.867188 262.792969 397.132812 C 262.890625 397.265625 262.859375 397.398438 262.890625 397.496094 C 263.855469 398.292969 264.253906 399.226562 264.617188 400.023438 C 265.648438 402.28125 264.550781 404.304688 263.15625 405.800781 C 261.597656 407.460938 258.804688 407.859375 256.183594 406.628906 C 255.417969 406.265625 254.722656 405.632812 254.058594 404.871094 Z M 260.167969 395.703125 C 260.167969 395.703125 260.101562 395.703125 260.066406 395.738281 Z M 385.769531 448.507812 C 382.613281 450.035156 379.691406 451.464844 377.300781 452.859375 C 373.914062 454.820312 367.4375 459.902344 363.785156 465.480469 C 361.691406 468.703125 360.398438 472.121094 362.324219 475.011719 C 363.285156 476.472656 364.78125 476.074219 366.277344 475.308594 C 369.695312 473.617188 373.148438 469.765625 374.511719 468.035156 C 378.53125 462.988281 381.71875 457.375 384.441406 451.53125 C 384.90625 450.535156 385.339844 449.503906 385.769531 448.507812 Z M 297.730469 420.511719 C 297.363281 420.3125 297.664062 421.210938 297.730469 421.507812 L 297.761719 421.542969 C 298.0625 421.144531 298.160156 420.777344 297.730469 420.511719 Z M 186.707031 435.226562 C 189.527344 433.296875 191.988281 431.207031 193.679688 429.578125 C 194.644531 428.617188 196.535156 426.722656 197.832031 424.765625 C 198.261719 424.097656 198.628906 423.101562 198.761719 422.703125 C 198.328125 422.40625 197.730469 422.4375 197.167969 422.539062 C 196.070312 422.738281 194.941406 423.335938 194.210938 424 C 190.027344 427.6875 187.46875 431.703125 186.707031 435.226562 Z M 161.433594 422.007812 C 160.535156 421.742188 159.773438 421.574219 159.574219 421.609375 C 157.582031 421.773438 155.722656 422.835938 154.027344 424.199219 C 151.238281 426.425781 148.914062 429.546875 147.417969 432.101562 C 146.921875 432.933594 145.789062 435.625 145.226562 438.113281 C 145.058594 438.878906 145.027344 439.839844 145.027344 440.472656 C 145.691406 440.105469 146.722656 439.507812 147.617188 438.84375 C 151.070312 436.253906 155.820312 431.804688 160.667969 426.789062 C 160.867188 425.195312 161.101562 423.601562 161.433594 422.007812 Z M 167.808594 419.152344 C 173.390625 412.941406 178.269531 406.929688 180.460938 403.242188 C 181.359375 401.714844 183.949219 397.5625 185.378906 393.679688 C 185.777344 392.617188 186.074219 391.585938 186.207031 390.65625 C 186.242188 390.390625 186.273438 390.125 186.273438 389.925781 C 185.609375 390.390625 184.515625 391.1875 183.75 391.953125 C 181.328125 394.410156 179.066406 397.597656 178.535156 398.292969 C 175.214844 402.679688 172.292969 407.5625 170.101562 412.707031 C 169.203125 414.832031 168.441406 416.960938 167.808594 419.152344 Z M 224.632812 419.714844 C 228.386719 414.667969 231.605469 409.585938 234.265625 405.335938 C 235.09375 403.972656 237.320312 400.886719 238.980469 397.664062 C 239.476562 396.699219 239.910156 395.703125 240.242188 394.808594 C 240.007812 394.972656 239.808594 395.207031 239.578125 395.40625 C 237.1875 397.828125 234.960938 400.984375 234.429688 401.714844 C 231.507812 405.667969 228.882812 410.117188 226.726562 414.765625 C 225.960938 416.394531 225.265625 418.054688 224.632812 419.714844 Z M 240.640625 392.515625 C 240.574219 392.550781 240.707031 392.648438 240.773438 392.714844 L 240.804688 392.78125 C 240.839844 392.582031 240.804688 392.484375 240.640625 392.515625 Z M 320.210938 426.191406 C 320.511719 425.960938 320.742188 425.761719 320.941406 425.5625 C 321.574219 424.964844 323.601562 422.835938 325.0625 420.546875 C 325.359375 420.113281 325.660156 419.515625 325.890625 418.984375 C 324.695312 419.117188 322.835938 419.683594 321.839844 421.640625 C 321.207031 422.9375 320.644531 424.496094 320.210938 426.191406 Z M 402.808594 412.042969 C 403.039062 411.445312 403.007812 411.015625 402.542969 410.914062 C 402.042969 410.847656 402.609375 411.746094 402.808594 412.042969 Z M 430.105469 398.628906 C 433.460938 408.492188 431.136719 416.59375 425.789062 423.402344 C 418.417969 432.734375 404.898438 439.507812 393.042969 445.089844 C 391.882812 448.042969 390.617188 450.933594 389.257812 453.789062 C 386.335938 460 382.878906 465.945312 378.5625 471.292969 C 376.605469 473.75 370.992188 479.5625 366.144531 480.824219 C 363.054688 481.621094 360.164062 480.988281 358.074219 477.800781 C 355.117188 473.21875 356.277344 467.804688 359.632812 462.722656 C 363.75 456.511719 371.058594 450.832031 374.878906 448.675781 C 378.496094 446.617188 383.246094 444.457031 388.394531 442.132812 C 389.589844 439.078125 390.683594 436.023438 391.78125 433 C 389.257812 434.695312 386.566406 436.054688 383.84375 436.820312 C 381.1875 437.550781 378.5625 437.21875 376.671875 436.054688 C 374.746094 434.925781 373.382812 432.933594 373.25 430.109375 C 372.816406 430.542969 372.351562 430.941406 371.921875 431.339844 C 369.761719 433.230469 367.472656 434.859375 364.914062 436.023438 C 363.152344 436.820312 360.429688 437.617188 358.140625 437.382812 C 355.847656 437.152344 353.886719 436.054688 352.824219 433.730469 C 351.796875 431.539062 351.761719 429.082031 352.425781 426.589844 C 353.390625 422.96875 355.980469 419.21875 357.90625 416.460938 C 356.144531 416.230469 354.320312 415.863281 352.625 415.5625 C 351.5625 415.363281 350.070312 415.296875 349.40625 415.265625 C 349.304688 415.53125 349.171875 415.894531 349.105469 416.164062 C 348.875 417.125 348.640625 418.1875 348.410156 419.050781 C 348.175781 419.847656 347.875 420.546875 347.578125 421.078125 C 345.21875 425.261719 338.011719 435.589844 330.839844 440.570312 C 326.15625 443.828125 321.40625 444.757812 317.554688 442.5 C 315.828125 441.5 314.566406 439.808594 313.769531 437.617188 C 312.707031 438.015625 311.609375 438.378906 310.546875 438.679688 C 305.367188 440.105469 300.417969 439.675781 297.363281 436.785156 C 296.167969 435.65625 295.371094 434.195312 294.9375 432.535156 C 291.652344 435.191406 287.035156 438.746094 282.882812 440.703125 C 278.46875 442.765625 274.414062 442.832031 271.859375 440.871094 C 269.070312 438.679688 268.238281 435.789062 268.636719 432.566406 C 268.667969 432.402344 268.667969 432.203125 268.703125 432.035156 C 266.277344 434.363281 263.390625 436.984375 260.367188 439.011719 C 257.113281 441.203125 253.691406 442.699219 250.371094 442.929688 C 247.582031 443.097656 245.6875 442.300781 244.359375 441.070312 C 242.898438 439.742188 242.066406 437.75 242 435.324219 C 242 435.125 241.96875 434.925781 242 434.726562 C 238.414062 437.78125 233.566406 441.632812 229.148438 443.59375 C 224.300781 445.820312 219.882812 445.6875 217.0625 442.898438 C 216.195312 442.066406 215.566406 441.070312 215.101562 439.941406 C 211.015625 443.394531 206.730469 446.152344 202.28125 447.746094 C 191.921875 451.464844 185.179688 449.105469 182.125 444.359375 C 181.359375 444.65625 180.59375 444.957031 179.832031 445.1875 C 174.21875 446.980469 168.671875 446.75 164.390625 443.03125 C 162.59375 441.433594 161.5 439.375 160.933594 437.050781 C 160.667969 435.957031 160.503906 434.761719 160.4375 433.597656 C 159.90625 434.128906 159.375 434.628906 158.84375 435.125 C 153.761719 439.941406 149.210938 443.59375 146.621094 444.757812 C 145.324219 445.355469 144.261719 445.421875 143.53125 445.222656 C 141.441406 444.625 140.277344 442.53125 140.542969 439.507812 C 140.875 436.023438 142.933594 431.140625 143.699219 429.910156 C 145.425781 426.957031 148.148438 423.402344 151.371094 420.878906 C 153.792969 418.984375 156.453125 417.691406 159.207031 417.457031 C 159.574219 417.425781 160.867188 417.65625 162.429688 418.089844 C 163.160156 415.53125 164.058594 413.039062 165.121094 410.582031 C 167.511719 405.003906 170.730469 399.789062 174.351562 395.074219 C 175.214844 393.945312 180.164062 387.367188 183.785156 385.277344 C 186.242188 383.882812 188.398438 384.113281 189.859375 385.707031 C 191.421875 387.367188 191.722656 390.226562 190.792969 393.480469 C 189.496094 398.160156 185.875 403.875 184.746094 405.800781 C 181.726562 410.75 174.019531 419.75 166.148438 427.886719 C 166.117188 428.152344 166.117188 428.417969 166.082031 428.683594 C 165.949219 430.507812 165.851562 432.632812 166.183594 434.628906 C 166.414062 436.1875 166.914062 437.714844 168.109375 438.746094 C 170.863281 441.101562 174.484375 440.871094 178.039062 439.675781 C 178.800781 439.441406 179.566406 439.144531 180.296875 438.8125 C 179.863281 433.199219 182.855469 425.792969 190.160156 419.382812 C 192.019531 417.789062 194.910156 416.460938 197.597656 416.429688 C 199.824219 416.363281 201.949219 417.125 203.542969 418.917969 C 205.105469 420.710938 205.269531 423.167969 204.109375 425.792969 C 202.746094 428.882812 199.394531 432.367188 197.832031 433.863281 C 195.507812 436.089844 191.886719 439.011719 187.835938 441.46875 C 189.828125 443.695312 194.078125 443.925781 200.089844 441.734375 C 205.171875 439.875 209.953125 436.1875 214.402344 431.769531 C 214.601562 430.242188 214.867188 428.816406 215.101562 427.621094 C 216.164062 422.339844 218.058594 416.960938 220.414062 411.84375 C 222.804688 406.761719 225.730469 401.949219 228.882812 397.664062 C 229.847656 396.367188 234.996094 389.425781 238.78125 387.402344 C 241.636719 385.839844 244.160156 386.238281 245.921875 388.265625 C 247.582031 390.226562 247.878906 393.378906 246.683594 396.898438 C 245.089844 401.449219 241.171875 406.929688 239.941406 408.890625 C 235.261719 416.296875 228.785156 426.125 221.210938 434.128906 C 221.210938 434.296875 221.210938 434.429688 221.210938 434.59375 C 221.210938 435.855469 221.210938 437.117188 222.007812 437.882812 C 222.507812 438.414062 223.304688 438.148438 224.101562 437.949219 C 225.496094 437.617188 226.957031 436.886719 228.484375 435.988281 C 233.933594 432.800781 239.542969 427.453125 241.503906 425.660156 C 242.464844 424.765625 243.398438 423.898438 244.292969 422.96875 C 245.191406 422.105469 246.054688 421.175781 246.882812 420.214844 C 247.082031 420.015625 247.414062 419.617188 247.746094 419.183594 C 248.246094 418.488281 248.710938 417.890625 249.109375 417.492188 C 251.898438 414.566406 254.6875 417.65625 254.820312 417.890625 C 254.953125 418.054688 256.148438 419.949219 254.621094 422.007812 C 254.390625 422.339844 253.726562 423.167969 253.09375 423.898438 C 251.898438 425.761719 250.503906 428.714844 249.707031 431.472656 C 249.339844 432.765625 249.074219 433.996094 249.109375 435.058594 C 249.140625 435.292969 249.175781 435.589844 249.242188 435.757812 C 249.40625 435.789062 249.671875 435.789062 249.90625 435.789062 C 252.066406 435.625 254.257812 434.496094 256.347656 433.066406 C 260.066406 430.574219 263.488281 427.121094 266.046875 424.699219 L 270.796875 419.980469 C 270.894531 419.847656 272.488281 418.386719 273.121094 417.824219 C 276.175781 415.164062 279.230469 419.484375 279.265625 419.714844 C 279.53125 421.277344 279.230469 423.234375 278.46875 425.363281 C 277.601562 427.886719 276.042969 430.808594 275.710938 433.398438 C 275.644531 434.097656 275.609375 434.761719 276.207031 435.257812 C 276.339844 435.359375 276.539062 435.257812 276.707031 435.257812 C 277.105469 435.226562 277.535156 435.125 277.96875 434.992188 C 279.796875 434.460938 281.886719 433.296875 283.914062 431.96875 C 288.132812 429.214844 292.082031 425.695312 293.742188 424.296875 C 293.976562 424.097656 294.738281 423.699219 295.503906 423.203125 C 295.96875 422.238281 297.332031 419.714844 298.027344 418.785156 C 298.660156 417.921875 299.355469 417.558594 299.6875 417.425781 C 300.949219 416.859375 302.011719 417.125 302.808594 417.558594 C 303.507812 417.957031 304.273438 418.585938 304.570312 419.847656 C 304.871094 421.078125 304.671875 422.539062 303.804688 424.03125 C 303.339844 424.863281 302.609375 425.726562 301.8125 426.523438 C 301.613281 427.421875 301.480469 428.484375 301.515625 429.480469 C 301.546875 430.34375 301.582031 431.207031 302.144531 431.738281 C 303.007812 432.535156 304.238281 432.632812 305.601562 432.535156 C 307.292969 432.433594 309.121094 431.9375 310.914062 431.304688 C 311.578125 431.039062 312.207031 430.808594 312.839844 430.507812 C 313.007812 426.324219 314.203125 421.773438 315.828125 418.585938 C 318.054688 414.167969 321.273438 412.476562 324.097656 412.011719 C 326.65625 411.578125 328.980469 412.210938 330.375 413.007812 C 331.4375 413.605469 332.101562 414.367188 332.46875 415 C 333.464844 416.761719 333.398438 419.316406 332.101562 422.007812 C 330.410156 425.59375 326.65625 429.613281 325.660156 430.542969 C 324.429688 431.738281 322.339844 433.230469 319.8125 434.695312 C 319.878906 434.894531 319.914062 435.09375 319.980469 435.257812 C 320.210938 435.890625 320.410156 436.453125 320.910156 436.753906 C 322.007812 437.382812 323.269531 437.085938 324.597656 436.519531 C 326.222656 435.824219 327.882812 434.628906 329.511719 433.199219 C 335.023438 428.417969 340.105469 421.078125 341.933594 417.855469 C 342.628906 416.660156 342.796875 414.335938 343.394531 412.808594 C 343.757812 411.84375 344.257812 411.046875 344.789062 410.484375 C 345.683594 409.585938 346.914062 408.988281 348.574219 408.824219 C 351.296875 408.523438 355.847656 409.820312 359.699219 410.285156 C 360.496094 410.382812 361.226562 410.417969 361.890625 410.351562 C 362.089844 410.351562 362.289062 410.316406 362.457031 410.285156 C 362.855469 409.785156 363.320312 409.253906 363.484375 409.089844 C 364.847656 407.859375 366.175781 408.226562 366.609375 408.359375 C 367.605469 408.65625 368.367188 409.289062 368.734375 410.515625 C 368.832031 410.78125 369.132812 411.613281 368.535156 412.941406 C 368.035156 413.902344 367.40625 414.699219 366.574219 415.296875 L 363.882812 418.917969 C 362.488281 420.945312 360.132812 423.898438 358.902344 426.957031 C 358.304688 428.382812 357.90625 429.84375 358.472656 431.105469 C 358.539062 431.238281 358.738281 431.207031 358.871094 431.207031 C 359.167969 431.238281 359.46875 431.207031 359.800781 431.171875 C 360.730469 431.039062 361.660156 430.707031 362.355469 430.410156 C 364.347656 429.480469 366.175781 428.183594 367.902344 426.722656 C 370.660156 424.332031 373.082031 421.441406 375.410156 418.820312 L 379.59375 413.570312 C 380.589844 412.277344 382.414062 412.011719 383.746094 412.941406 C 385.074219 413.871094 385.40625 415.695312 384.542969 417.058594 L 382.347656 420.613281 C 381.484375 422.273438 380.589844 424.132812 379.925781 426.058594 C 379.558594 427.1875 379.261719 428.316406 379.195312 429.414062 C 379.128906 430.175781 379.261719 430.742188 379.726562 431.039062 C 380.421875 431.4375 381.351562 431.40625 382.28125 431.140625 C 385.539062 430.277344 388.691406 428.285156 391.546875 425.894531 C 393.078125 424.597656 394.503906 423.203125 395.800781 421.742188 C 396.796875 418.886719 398.554688 413.9375 400.28125 411.113281 C 401.246094 409.554688 402.308594 408.523438 403.207031 408.09375 C 404.035156 407.695312 404.867188 407.628906 405.664062 407.761719 C 407.15625 408.058594 408.550781 409.289062 408.152344 411.8125 C 407.753906 414.234375 404.101562 420.480469 403.804688 420.878906 C 402.839844 422.273438 401.746094 423.699219 400.515625 425.097656 C 400.414062 425.429688 400.347656 425.660156 400.28125 425.792969 C 398.6875 430.078125 397.09375 434.496094 395.46875 438.84375 C 403.074219 435.257812 410.878906 431.105469 416.953125 426.027344 C 424.890625 419.351562 429.742188 411.046875 426.054688 399.988281 C 425.6875 398.894531 426.285156 397.664062 427.417969 397.296875 C 428.511719 396.933594 429.707031 397.53125 430.105469 398.628906 Z M 328.980469 470.429688 C 329.011719 470.429688 329.046875 470.496094 329.046875 470.628906 C 329.011719 470.894531 328.679688 470.859375 328.28125 470.761719 C 328.414062 470.628906 328.613281 470.496094 328.746094 470.429688 C 328.515625 470.496094 328.28125 470.5625 328.050781 470.726562 C 327.484375 470.527344 326.820312 470.261719 326.488281 470.296875 L 321.941406 470.460938 L 307.757812 471.09375 L 259.769531 473.382812 C 250.238281 473.949219 240.707031 474.511719 231.175781 475.175781 C 221.644531 475.875 212.113281 476.671875 202.582031 477.535156 C 174.019531 480.09375 145.523438 483.148438 116.996094 486.070312 C 115.835938 486.171875 114.972656 487.199219 115.070312 488.363281 C 115.171875 489.523438 116.199219 490.386719 117.363281 490.289062 C 137.355469 488.859375 157.382812 487.5 177.40625 486.136719 C 190.726562 485.207031 204.074219 484.308594 217.394531 483.347656 C 225.960938 482.75 234.53125 482.117188 243.097656 481.453125 C 248.808594 481.023438 254.523438 480.558594 260.234375 480.125 L 308.089844 476.140625 L 322.238281 474.878906 L 326.6875 474.480469 C 327.085938 474.445312 327.882812 474.613281 328.382812 474.679688 C 328.980469 474.710938 329.445312 474.679688 329.675781 474.613281 C 330.640625 474.347656 331.039062 473.714844 331.207031 473.152344 C 331.304688 472.71875 331.503906 471.789062 330.476562 470.925781 C 330.042969 470.527344 329.511719 470.363281 328.980469 470.429688 Z M 324.597656 484.277344 C 317.355469 485.40625 309.917969 486.070312 302.410156 486.570312 C 284.84375 487.632812 266.84375 487.464844 249.773438 488.496094 C 240.242188 489.191406 230.742188 489.789062 221.210938 490.554688 C 211.714844 491.316406 202.183594 492.148438 192.683594 493.042969 C 164.15625 495.667969 135.660156 498.65625 107.199219 501.710938 C 106.003906 501.84375 105.175781 502.875 105.273438 504.039062 C 105.375 505.199219 106.402344 506.0625 107.597656 505.964844 C 127.558594 504.402344 147.550781 503.007812 167.542969 501.613281 C 180.859375 500.648438 194.179688 499.753906 207.496094 498.757812 C 213.207031 498.359375 218.921875 497.925781 224.632812 497.460938 C 233.199219 496.765625 241.734375 496.035156 250.304688 495.304688 C 267.308594 493.707031 285.308594 493.375 302.808594 491.617188 C 310.449219 490.820312 318.019531 489.757812 325.328125 488.261719 C 326.457031 488.0625 327.1875 487 326.988281 485.902344 C 326.753906 484.808594 325.726562 484.078125 324.597656 484.277344 Z M 227.222656 468.433594 C 236.191406 468.101562 245.125 467.835938 254.058594 467.472656 C 259.835938 467.238281 265.582031 467.007812 271.328125 466.707031 C 275.144531 466.507812 279 466.277344 282.816406 466.078125 C 293.144531 465.445312 304.339844 465.679688 315.132812 464.816406 C 319.914062 464.449219 324.597656 463.851562 329.144531 462.890625 C 330.242188 462.691406 330.972656 461.660156 330.773438 460.53125 C 330.574219 459.433594 329.511719 458.703125 328.414062 458.902344 C 324.03125 459.5 319.515625 459.734375 314.898438 459.835938 C 304.070312 460.035156 292.914062 459.269531 282.585938 459.367188 C 276.175781 459.535156 269.765625 459.667969 263.355469 459.933594 C 256.945312 460.199219 250.535156 460.566406 244.160156 460.996094 C 224.964844 462.257812 205.800781 463.953125 186.640625 465.644531 C 185.476562 465.710938 184.582031 466.707031 184.679688 467.871094 C 184.746094 469.066406 185.742188 469.929688 186.90625 469.863281 C 200.355469 469.332031 213.773438 468.902344 227.222656 468.433594 Z M 776.957031 623.296875 L 533.988281 620.507812 L 531.03125 349.242188 C 531.03125 349.242188 651.554688 341.074219 669.886719 377.273438 C 680.546875 398.292969 702.433594 441.535156 702.433594 441.535156 C 702.433594 441.535156 776.390625 503.472656 776.957031 623.296875 " fill-opacity="1" fill-rule="nonzero"/><path fill="#fce8bc" d="M 594.199219 557.308594 C 589.183594 551.859375 582.839844 549.203125 576.53125 546.910156 C 570.054688 544.585938 563.613281 542.660156 558.765625 538.308594 C 555.210938 535.121094 552.519531 530.640625 551.292969 523.664062 C 550.164062 517.320312 549.695312 510.910156 549.628906 504.535156 C 549.496094 494.871094 550.261719 485.207031 550.894531 475.542969 C 551.058594 472.6875 551.292969 469.832031 551.523438 466.972656 C 551.757812 464.152344 552.023438 461.296875 552.320312 458.4375 C 552.6875 454.886719 552.886719 451.234375 553.019531 449.703125 C 553.019531 449.636719 553.019531 449.570312 553.019531 449.503906 C 553.117188 449.40625 553.152344 449.273438 553.152344 449.105469 C 553.117188 448.707031 552.953125 448.542969 552.917969 448.507812 C 552.753906 448.375 552.1875 448.144531 551.988281 448.839844 C 551.957031 448.941406 551.921875 449.207031 551.890625 449.605469 C 551.757812 451.132812 551.523438 454.785156 551.09375 458.304688 C 550.761719 461.164062 550.429688 464.019531 550.164062 466.875 C 549.898438 469.730469 549.664062 472.585938 549.429688 475.441406 C 548.699219 485.140625 547.835938 494.835938 547.871094 504.535156 C 547.871094 511.042969 548.300781 517.519531 549.429688 523.996094 C 550.726562 531.503906 553.648438 536.316406 557.46875 539.738281 C 562.515625 544.289062 569.191406 546.28125 575.898438 548.671875 C 581.976562 550.832031 588.089844 553.289062 592.9375 558.503906 C 597.820312 563.714844 599.8125 571.753906 600.441406 580.453125 C 601.371094 593.007812 599.414062 606.988281 598.816406 616.621094 C 598.78125 616.917969 599.046875 617.183594 599.347656 617.21875 C 599.679688 617.25 599.945312 617.019531 599.976562 616.6875 C 600.640625 607.023438 602.769531 592.976562 601.96875 580.355469 C 601.40625 571.222656 599.28125 562.851562 594.199219 557.308594 Z M 586.363281 491.316406 C 581.015625 492.148438 575.800781 492.746094 574.4375 492.546875 C 573.175781 492.347656 570.253906 491.882812 567.765625 491.316406 C 566.367188 490.984375 565.140625 490.652344 564.410156 490.289062 C 564.308594 490.253906 564.144531 490.1875 564.078125 490.15625 C 564.078125 490.1875 564.078125 490.222656 564.078125 490.253906 C 564.078125 490.222656 564.078125 490.1875 564.078125 490.15625 C 564.042969 490.121094 564.011719 490.089844 564.042969 490.089844 C 564.042969 490.054688 564.042969 490.054688 564.042969 490.054688 C 564.011719 489.855469 563.8125 489.691406 563.578125 489.65625 C 563.28125 489.625 563.015625 489.855469 562.980469 490.15625 C 562.949219 490.421875 563.082031 490.71875 563.445312 491.019531 C 563.777344 491.285156 564.410156 491.582031 565.238281 491.847656 C 567.898438 492.777344 572.511719 493.707031 574.207031 494.007812 C 575.601562 494.238281 580.949219 493.875 586.460938 493.109375 C 591.078125 492.480469 595.792969 491.617188 598.484375 490.71875 C 599.878906 490.253906 600.808594 489.691406 601.105469 489.257812 C 601.304688 488.960938 601.371094 488.628906 601.339844 488.328125 C 601.304688 487.996094 601.140625 487.632812 600.707031 487.332031 C 600.242188 487 599.246094 486.636719 597.519531 486.371094 C 594.566406 485.9375 591.609375 485.703125 588.621094 485.636719 C 585.664062 485.539062 582.707031 485.636719 579.753906 485.835938 C 577.195312 486.003906 574.636719 486.269531 572.082031 486.601562 C 569.523438 486.902344 567 487.265625 564.476562 487.664062 C 564.144531 487.699219 563.945312 487.996094 563.976562 488.328125 C 564.011719 488.628906 564.308594 488.859375 564.609375 488.792969 C 567.132812 488.460938 569.691406 488.164062 572.214844 487.929688 C 574.738281 487.699219 577.296875 487.5 579.820312 487.367188 C 582.742188 487.265625 585.664062 487.234375 588.554688 487.367188 C 591.476562 487.5 594.367188 487.765625 597.222656 488.230469 C 597.886719 488.363281 598.417969 488.460938 598.816406 488.59375 C 598.617188 488.660156 598.351562 488.726562 598.152344 488.792969 C 595.628906 489.691406 590.945312 490.585938 586.363281 491.316406 Z M 564.078125 490.15625 C 564.078125 490.121094 564.078125 490.054688 564.042969 490.054688 C 564.078125 490.089844 564.078125 490.121094 564.078125 490.15625 Z M 551.257812 447.910156 L 550.5625 377.238281 C 550.5625 377.238281 635.777344 367.210938 656.734375 387.898438 L 686.855469 451.664062 L 551.257812 447.910156 " fill-opacity="1" fill-rule="evenodd"/><g clip-path="url(#30c18f1e2b)"><path fill="#0097b2" d="M 781.207031 607.851562 L 781.207031 640.929688 L 28.789062 640.929688 L 28.789062 607.851562 L 131.476562 607.851562 C 140.710938 589.953125 159.339844 568.863281 195.972656 568.597656 C 234.53125 568.332031 251.867188 588.988281 259.769531 607.851562 L 599.148438 607.851562 C 609.011719 590.914062 627.476562 572.582031 661.582031 572.183594 C 695.027344 571.820312 712.5625 590.050781 721.792969 607.851562 L 781.207031 607.851562 " fill-opacity="1" fill-rule="evenodd"/></g><g clip-path="url(#7f5b70400e)"><path fill="#3b435f" d="M 194.675781 586.332031 C 161.300781 586.332031 134.167969 613.765625 134.167969 647.507812 C 134.167969 681.25 161.300781 708.648438 194.675781 708.648438 C 228.054688 708.648438 255.1875 681.25 255.1875 647.507812 C 255.1875 613.765625 228.054688 586.332031 194.675781 586.332031 Z M 720.796875 651.09375 C 720.796875 684.835938 693.699219 712.265625 660.289062 712.265625 C 626.910156 712.265625 599.8125 684.835938 599.8125 651.09375 C 599.8125 617.351562 626.910156 589.953125 660.289062 589.953125 C 693.699219 589.953125 720.796875 617.351562 720.796875 651.09375 " fill-opacity="1" fill-rule="evenodd"/></g><path fill="#f5ba53" d="M 715.980469 461.859375 C 716.015625 461.894531 716.082031 461.894531 716.046875 461.859375 C 716.046875 461.828125 716.015625 461.828125 715.980469 461.859375 Z M 715.882812 461.925781 C 715.847656 461.992188 715.78125 462.058594 715.714844 462.125 C 714.089844 463.71875 710.667969 469.367188 710.535156 469.765625 C 709.640625 472.753906 709.339844 475.941406 709.507812 479.128906 C 709.671875 482.316406 710.304688 485.503906 711.265625 488.429688 C 712.429688 491.949219 713.890625 495.003906 715.582031 497.660156 C 718.472656 502.242188 722.09375 505.664062 726.277344 508.320312 C 733.25 512.773438 741.652344 515.097656 750.453125 517.023438 C 750.785156 517.089844 750.984375 517.386719 750.917969 517.71875 C 750.851562 518.019531 750.554688 518.21875 750.222656 518.152344 C 744.941406 517.121094 739.792969 515.960938 734.980469 514.265625 C 729.832031 512.472656 725.113281 510.082031 720.996094 506.695312 C 717.84375 504.070312 715.085938 500.882812 712.859375 496.863281 C 711.53125 494.539062 710.4375 491.914062 709.507812 489.027344 C 708.542969 485.902344 707.914062 482.550781 707.8125 479.195312 C 707.710938 475.808594 708.144531 472.453125 709.175781 469.332031 C 709.308594 468.96875 712.230469 464.351562 714.15625 462.125 C 714.753906 461.429688 715.285156 460.964844 715.617188 460.832031 C 715.949219 460.699219 716.179688 460.730469 716.378906 460.863281 C 716.511719 460.929688 716.648438 461.0625 716.714844 461.296875 C 716.8125 461.5625 716.648438 461.894531 716.378906 461.992188 C 716.214844 462.027344 716.046875 462.027344 715.882812 461.925781 " fill-opacity="1" fill-rule="evenodd"/><path fill="#fce8bc" d="M 683.867188 675.570312 C 677.855469 681.382812 669.652344 685 660.554688 684.96875 C 651.488281 685 643.25 681.414062 637.238281 675.570312 C 631.164062 669.691406 627.375 661.519531 627.34375 652.488281 C 627.308594 643.386719 631.0625 635.183594 637.105469 629.207031 C 643.117188 623.296875 651.386719 619.609375 660.554688 619.578125 L 660.554688 619.542969 C 669.71875 619.609375 678.023438 623.296875 684 629.207031 C 690.042969 635.183594 693.796875 643.421875 693.730469 652.488281 C 693.699219 661.519531 689.910156 669.691406 683.867188 675.570312 Z M 684.996094 628.210938 C 678.71875 622.132812 670.085938 618.414062 660.554688 618.449219 C 651.054688 618.382812 642.421875 622.132812 636.109375 628.210938 C 629.734375 634.386719 625.78125 642.988281 625.714844 652.488281 C 625.683594 662.019531 629.601562 670.65625 635.976562 676.898438 C 642.289062 683.074219 650.957031 686.894531 660.554688 686.925781 C 670.152344 686.894531 678.851562 683.074219 685.164062 676.898438 C 691.539062 670.65625 695.457031 662.019531 695.425781 652.488281 C 695.390625 642.957031 691.40625 634.386719 684.996094 628.210938 Z M 218.355469 671.121094 C 212.378906 676.929688 204.140625 680.550781 195.074219 680.550781 C 185.976562 680.550781 177.738281 676.964844 171.726562 671.152344 C 165.683594 665.242188 161.898438 657.070312 161.863281 648.039062 C 161.796875 638.972656 165.550781 630.734375 171.59375 624.789062 C 177.605469 618.847656 185.910156 615.191406 195.074219 615.125 L 195.074219 615.09375 C 204.242188 615.160156 212.511719 618.847656 218.523438 624.789062 C 224.566406 630.734375 228.285156 638.972656 228.21875 648.039062 C 228.21875 657.070312 224.433594 665.242188 218.355469 671.121094 Z M 195.074219 613.996094 C 185.542969 613.929688 176.910156 617.683594 170.632812 623.761719 C 164.222656 629.9375 160.269531 638.539062 160.238281 648.039062 C 160.203125 657.570312 164.125 666.203125 170.464844 672.449219 C 176.777344 678.625 185.476562 682.445312 195.074219 682.476562 C 204.671875 682.476562 213.375 678.65625 219.683594 672.449219 C 226.027344 666.238281 229.945312 657.570312 229.914062 648.039062 C 229.878906 638.539062 225.894531 629.9375 219.519531 623.761719 C 213.207031 617.683594 204.574219 613.964844 195.074219 613.996094 " fill-opacity="1" fill-rule="evenodd"/><path fill="#3b435f" d="M 689.214844 428.417969 C 691.640625 427.1875 694.792969 425.460938 694.992188 425.429688 C 697.714844 425.230469 699.777344 426.921875 701.003906 429.246094 C 703.164062 433.265625 703.59375 438.347656 704.027344 442.832031 C 704.789062 450.964844 705.222656 459.269531 704.058594 467.371094 C 703.628906 470.527344 702.796875 473.617188 701.371094 476.472656 C 701.039062 477.136719 700.375 478.863281 699.511719 479.03125 C 698.546875 479.230469 697.648438 476.9375 697.382812 476.339844 C 696.023438 473.417969 695.125 470.363281 694.660156 467.207031 C 693.367188 458.007812 694.726562 448.242188 692.402344 439.210938 C 692.105469 438.082031 691.773438 436.652344 690.777344 435.890625 C 690.3125 435.523438 688.816406 435.589844 688.683594 435.125 C 687.785156 431.96875 687.519531 429.3125 689.214844 428.417969 " fill-opacity="1" fill-rule="evenodd"/></svg>